<svg xmlns="http://www.w3.org/2000/svg" width="220" height="26" viewBox="0 0 155 26" fill="none">
  <path fill="#3F4254" d="M58.81 13.76L58.81 13.76L58.81 19.44L56.09 19.44L56.09 6.35L58.73 6.35L58.73 11.35L58.85 11.35Q59.18 10.48 59.92 9.99Q60.66 9.49 61.78 9.49L61.78 9.49Q62.80 9.49 63.57 9.94Q64.33 10.38 64.76 11.21Q65.18 12.04 65.18 13.19L65.18 13.19L65.18 19.44L62.45 19.44L62.45 13.67Q62.46 12.76 62.00 12.26Q61.53 11.75 60.70 11.75L60.70 11.75Q60.15 11.75 59.72 11.99Q59.30 12.23 59.06 12.68Q58.82 13.13 58.81 13.76ZM70.12 19.62L70.12 19.62Q69.18 19.62 68.45 19.29Q67.71 18.96 67.29 18.32Q66.86 17.67 66.86 16.70L66.86 16.70Q66.86 15.88 67.16 15.32Q67.46 14.76 67.98 14.43Q68.50 14.09 69.16 13.91Q69.82 13.74 70.55 13.67L70.55 13.67Q71.41 13.58 71.93 13.50Q72.46 13.42 72.69 13.26Q72.93 13.10 72.93 12.79L72.93 12.79L72.93 12.75Q72.93 12.14 72.55 11.81Q72.17 11.48 71.47 11.48L71.47 11.48Q70.74 11.48 70.30 11.80Q69.87 12.13 69.73 12.61L69.73 12.61L67.21 12.41Q67.40 11.51 67.96 10.86Q68.53 10.20 69.42 9.85Q70.31 9.49 71.49 9.49L71.49 9.49Q72.30 9.49 73.05 9.68Q73.81 9.88 74.39 10.28Q74.98 10.68 75.31 11.31Q75.65 11.94 75.65 12.82L75.65 12.82L75.65 19.44L73.07 19.44L73.07 18.08L72.99 18.08Q72.76 18.54 72.36 18.88Q71.96 19.23 71.41 19.43Q70.85 19.62 70.12 19.62ZM70.90 17.74L70.90 17.74Q71.50 17.74 71.96 17.50Q72.42 17.26 72.69 16.86Q72.95 16.45 72.95 15.93L72.95 15.93L72.95 14.89Q72.82 14.97 72.60 15.04Q72.38 15.10 72.11 15.16Q71.83 15.21 71.56 15.25Q71.28 15.30 71.06 15.33L71.06 15.33Q70.58 15.40 70.22 15.55Q69.86 15.70 69.66 15.96Q69.47 16.22 69.47 16.61L69.47 16.61Q69.47 17.16 69.87 17.45Q70.28 17.74 70.90 17.74ZM82.20 19.63L82.20 19.63Q80.72 19.63 79.63 18.99Q78.55 18.36 77.96 17.22Q77.37 16.08 77.37 14.57L77.37 14.57Q77.37 13.05 77.96 11.90Q78.55 10.76 79.63 10.13Q80.72 9.49 82.20 9.49L82.20 9.49Q83.69 9.49 84.78 10.13Q85.86 10.76 86.45 11.90Q87.04 13.05 87.04 14.57L87.04 14.57Q87.04 16.08 86.45 17.22Q85.86 18.36 84.78 18.99Q83.69 19.63 82.20 19.63ZM82.22 17.52L82.22 17.52Q82.89 17.52 83.35 17.13Q83.80 16.75 84.04 16.08Q84.27 15.40 84.27 14.55L84.27 14.55Q84.27 13.69 84.04 13.02Q83.80 12.35 83.35 11.96Q82.89 11.57 82.22 11.57L82.22 11.57Q81.53 11.57 81.07 11.96Q80.61 12.35 80.37 13.02Q80.14 13.69 80.14 14.55L80.14 14.55Q80.14 15.40 80.37 16.08Q80.61 16.75 81.07 17.13Q81.53 17.52 82.22 17.52ZM88.12 9.62L94.04 9.62L94.04 11.66L88.12 11.66L88.12 9.62ZM89.47 16.78L89.47 7.27L92.19 7.27L92.19 16.42Q92.19 16.80 92.30 17.01Q92.42 17.21 92.63 17.30Q92.83 17.38 93.11 17.38L93.11 17.38Q93.30 17.38 93.49 17.34Q93.68 17.31 93.79 17.29L93.79 17.29L94.22 19.32Q94.01 19.38 93.64 19.47Q93.27 19.55 92.74 19.57L92.74 19.57Q91.75 19.61 91.02 19.31Q90.28 19.01 89.87 18.38Q89.46 17.74 89.47 16.78L89.47 16.78ZM98.53 19.44L95.81 19.44L95.81 9.62L98.45 9.62L98.45 11.33L98.55 11.33Q98.82 10.42 99.45 9.95Q100.08 9.48 100.91 9.48L100.91 9.48Q101.11 9.48 101.35 9.50Q101.59 9.53 101.76 9.57L101.76 9.57L101.76 11.99Q101.57 11.93 101.23 11.89Q100.89 11.84 100.61 11.84L100.61 11.84Q100.01 11.84 99.54 12.10Q99.07 12.36 98.80 12.82Q98.53 13.28 98.53 13.88L98.53 13.88L98.53 19.44ZM109.46 15.26L109.46 15.26L109.46 9.62L112.18 9.62L112.18 19.44L109.57 19.44L109.57 17.65L109.47 17.65Q109.13 18.52 108.36 19.04Q107.59 19.57 106.49 19.57L106.49 19.57Q105.50 19.57 104.76 19.12Q104.01 18.67 103.59 17.85Q103.17 17.02 103.16 15.87L103.16 15.87L103.16 9.62L105.89 9.62L105.89 15.38Q105.89 16.25 106.35 16.76Q106.81 17.26 107.59 17.26L107.59 17.26Q108.08 17.26 108.51 17.04Q108.94 16.81 109.20 16.36Q109.47 15.92 109.46 15.26ZM118.79 19.63L118.79 19.63Q117.30 19.63 116.22 18.99Q115.14 18.36 114.55 17.22Q113.96 16.08 113.96 14.57L113.96 14.57Q113.96 13.05 114.55 11.90Q115.14 10.76 116.22 10.13Q117.30 9.49 118.79 9.49L118.79 9.49Q120.28 9.49 121.37 10.13Q122.45 10.76 123.04 11.90Q123.63 13.05 123.63 14.57L123.63 14.57Q123.63 16.08 123.04 17.22Q122.45 18.36 121.37 18.99Q120.28 19.63 118.79 19.63ZM118.81 17.52L118.81 17.52Q119.48 17.52 119.94 17.13Q120.39 16.75 120.62 16.08Q120.86 15.40 120.86 14.55L120.86 14.55Q120.86 13.69 120.62 13.02Q120.39 12.35 119.94 11.96Q119.48 11.57 118.81 11.57L118.81 11.57Q118.12 11.57 117.66 11.96Q117.19 12.35 116.96 13.02Q116.73 13.69 116.73 14.55L116.73 14.55Q116.73 15.40 116.96 16.08Q117.19 16.75 117.66 17.13Q118.12 17.52 118.81 17.52ZM128.13 13.76L128.13 13.76L128.13 19.44L125.40 19.44L125.40 9.62L128.00 9.62L128.00 11.35L128.11 11.35Q128.44 10.50 129.21 9.99Q129.97 9.49 131.07 9.49L131.07 9.49Q132.09 9.49 132.85 9.94Q133.61 10.39 134.03 11.21Q134.45 12.04 134.45 13.19L134.45 13.19L134.45 19.44L131.73 19.44L131.73 13.67Q131.74 12.77 131.27 12.26Q130.80 11.75 129.99 11.75L129.99 11.75Q129.44 11.75 129.02 11.99Q128.60 12.23 128.36 12.68Q128.13 13.13 128.13 13.76ZM141.02 23.32L141.02 23.32Q139.69 23.32 138.75 22.96Q137.81 22.60 137.25 21.98Q136.70 21.36 136.53 20.59L136.53 20.59L139.05 20.25Q139.16 20.54 139.41 20.80Q139.66 21.05 140.07 21.21Q140.49 21.37 141.08 21.37L141.08 21.37Q141.97 21.37 142.55 20.94Q143.13 20.50 143.13 19.50L143.13 19.50L143.13 17.70L143.01 17.70Q142.83 18.11 142.48 18.47Q142.12 18.84 141.55 19.07Q140.99 19.30 140.21 19.30L140.21 19.30Q139.11 19.30 138.20 18.78Q137.30 18.27 136.76 17.20Q136.23 16.14 136.23 14.51L136.23 14.51Q136.23 12.84 136.77 11.72Q137.32 10.60 138.22 10.05Q139.13 9.49 140.21 9.49L140.21 9.49Q141.03 9.49 141.59 9.77Q142.14 10.05 142.48 10.46Q142.83 10.87 143.01 11.27L143.01 11.27L143.11 11.27L143.11 9.62L145.82 9.62L145.82 19.53Q145.82 20.79 145.20 21.63Q144.59 22.47 143.51 22.90Q142.42 23.32 141.02 23.32ZM141.08 17.25L141.08 17.25Q141.73 17.25 142.19 16.92Q142.65 16.59 142.89 15.98Q143.14 15.36 143.14 14.50L143.14 14.50Q143.14 13.63 142.90 13.00Q142.65 12.36 142.19 12.01Q141.73 11.66 141.08 11.66L141.08 11.66Q140.40 11.66 139.94 12.02Q139.48 12.38 139.25 13.02Q139.01 13.66 139.01 14.50L139.01 14.50Q139.01 15.35 139.25 15.96Q139.49 16.58 139.95 16.92Q140.40 17.25 141.08 17.25Z"></path>
  <path fill="#3F4254" d="M150.41 20.53L150.41 20.53Q150.03 20.53 149.76 20.26Q149.49 19.99 149.49 19.61L149.49 19.61Q149.49 19.23 149.76 18.96Q150.03 18.69 150.41 18.69L150.41 18.69Q150.79 18.69 151.06 18.96Q151.33 19.23 151.33 19.61L151.33 19.61Q151.33 19.86 151.21 20.07Q151.08 20.28 150.87 20.41Q150.67 20.53 150.41 20.53ZM157.86 20.64L157.86 20.64Q156.65 20.64 155.75 20.00Q154.84 19.36 154.33 18.22Q153.82 17.08 153.82 15.55L153.82 15.55Q153.82 14.04 154.33 12.90Q154.84 11.76 155.75 11.12Q156.67 10.49 157.88 10.49L157.88 10.49Q158.78 10.49 159.37 10.80Q159.97 11.12 160.32 11.58Q160.68 12.05 160.88 12.49L160.88 12.49L160.98 12.49L160.98 7.35L162.13 7.35L162.13 20.44L161.01 20.44L161.01 18.62L160.88 18.62Q160.68 19.06 160.32 19.53Q159.95 20.00 159.36 20.32Q158.76 20.64 157.86 20.64ZM158.00 19.60L158.00 19.60Q158.95 19.60 159.62 19.08Q160.29 18.56 160.65 17.64Q161.00 16.72 161.00 15.53L161.00 15.53Q161.00 14.36 160.65 13.45Q160.30 12.55 159.63 12.04Q158.96 11.52 158.00 11.52L158.00 11.52Q157.01 11.52 156.34 12.05Q155.66 12.59 155.32 13.50Q154.97 14.40 154.97 15.53L154.97 15.53Q154.97 16.68 155.32 17.60Q155.67 18.52 156.34 19.06Q157.02 19.60 158.00 19.60ZM169.34 20.64L169.34 20.64Q167.96 20.64 166.96 20.00Q165.96 19.36 165.41 18.22Q164.86 17.08 164.86 15.59L164.86 15.59Q164.86 14.10 165.41 12.95Q165.96 11.80 166.92 11.14Q167.89 10.49 169.16 10.49L169.16 10.49Q169.96 10.49 170.70 10.78Q171.45 11.07 172.04 11.66Q172.63 12.26 172.97 13.17Q173.32 14.07 173.32 15.30L173.32 15.30L173.32 15.87L165.65 15.87L165.65 14.86L172.16 14.86Q172.16 13.92 171.78 13.16Q171.39 12.40 170.72 11.96Q170.05 11.52 169.16 11.52L169.16 11.52Q168.23 11.52 167.52 12.02Q166.81 12.52 166.41 13.34Q166.01 14.15 166.01 15.13L166.01 15.13L166.01 15.73Q166.01 16.90 166.41 17.77Q166.82 18.64 167.57 19.12Q168.31 19.60 169.34 19.60L169.34 19.60Q170.03 19.60 170.56 19.38Q171.09 19.17 171.45 18.80Q171.81 18.43 172.00 17.99L172.00 17.99L173.08 18.34Q172.85 18.96 172.34 19.49Q171.84 20.01 171.08 20.33Q170.32 20.64 169.34 20.64ZM182.18 10.62L183.42 10.62L179.83 20.44L178.62 20.44L175.03 10.62L176.27 10.62L179.18 18.94L179.27 18.94L182.18 10.62Z"/>
  <path d="M0 6C0 2.68629 2.68629 0 6 0H48C49.1046 0 50 0.895431 50 2V20C50 23.3137 47.3137 26 44 26H2C0.895432 26 0 25.1046 0 24V6Z" fill="#0094FF"/>
  <path fill="white" d="M8.39 17.66L6.70 17.66L6.70 9.66L8.39 9.66L8.39 12.96L11.82 12.96L11.82 9.66L13.51 9.66L13.51 17.66L11.82 17.66L11.82 14.35L8.39 14.35L8.39 17.66ZM17.05 11.05L14.60 11.05L14.60 9.66L21.17 9.66L21.17 11.05L18.72 11.05L18.72 17.66L17.05 17.66L17.05 11.05ZM21.82 9.66L23.70 9.66L25.63 15.73L25.71 15.73L27.64 9.66L29.52 9.66L26.76 17.66L24.58 17.66L21.82 9.66ZM33.57 17.83L33.57 17.83Q32.56 17.83 31.84 17.34Q31.11 16.84 30.72 15.91Q30.34 14.98 30.34 13.66L30.34 13.66Q30.34 12.36 30.73 11.43Q31.12 10.51 31.84 10.03Q32.57 9.55 33.57 9.55L33.57 9.55Q34.57 9.55 35.30 10.03Q36.02 10.52 36.41 11.44Q36.80 12.36 36.80 13.66L36.80 13.66Q36.80 14.98 36.41 15.91Q36.02 16.85 35.30 17.34Q34.58 17.83 33.57 17.83ZM33.57 16.43L33.57 16.43Q34.26 16.43 34.67 15.74Q35.08 15.05 35.07 13.66L35.07 13.66Q35.07 12.75 34.89 12.15Q34.70 11.54 34.37 11.24Q34.03 10.93 33.57 10.93L33.57 10.93Q32.89 10.93 32.48 11.62Q32.07 12.30 32.06 13.66L32.06 13.66Q32.06 14.59 32.25 15.20Q32.43 15.82 32.77 16.12Q33.11 16.43 33.57 16.43ZM40.96 17.77L40.96 17.77Q40.09 17.77 39.40 17.46Q38.72 17.16 38.33 16.63Q37.94 16.09 37.93 15.39L37.93 15.39L39.63 15.39Q39.64 15.69 39.82 15.91Q40 16.13 40.30 16.25Q40.59 16.37 40.96 16.37L40.96 16.37Q41.35 16.37 41.65 16.23Q41.95 16.10 42.11 15.86Q42.28 15.61 42.28 15.30L42.28 15.30Q42.28 14.98 42.10 14.73Q41.93 14.48 41.60 14.34Q41.27 14.20 40.81 14.20L40.81 14.20L40.07 14.20L40.07 12.96L40.81 12.96Q41.20 12.96 41.49 12.82Q41.79 12.69 41.95 12.46Q42.11 12.22 42.11 11.90L42.11 11.90Q42.11 11.60 41.97 11.37Q41.83 11.14 41.57 11.02Q41.32 10.89 40.98 10.89L40.98 10.89Q40.63 10.89 40.35 11.01Q40.06 11.13 39.89 11.36Q39.72 11.59 39.71 11.89L39.71 11.89L38.09 11.89Q38.10 11.20 38.48 10.67Q38.86 10.14 39.51 9.85Q40.16 9.55 40.98 9.55L40.98 9.55Q41.81 9.55 42.43 9.85Q43.05 10.15 43.40 10.66Q43.75 11.17 43.74 11.80L43.74 11.80Q43.75 12.47 43.33 12.92Q42.91 13.37 42.23 13.49L42.23 13.49L42.23 13.55Q43.12 13.67 43.58 14.17Q44.04 14.66 44.04 15.41L44.04 15.41Q44.04 16.09 43.65 16.63Q43.25 17.16 42.55 17.46Q41.86 17.77 40.96 17.77Z"/>
</svg>